<svg width="656" height="378" viewBox="0 0 656 378" fill="none" xmlns="http://www.w3.org/2000/svg">
<path d="M469.451 6.16406C469.451 5.28125 469.568 4.43359 469.803 3.62109C470.041 2.80859 470.395 2.07031 470.863 1.40625C471.332 0.742188 471.818 0.273438 472.322 0L472.545 0.714844C471.975 1.15234 471.506 1.82031 471.139 2.71875C470.775 3.61719 470.576 4.62305 470.541 5.73633L470.535 6.23438C470.535 7.74219 470.811 9.05078 471.361 10.1602C471.693 10.8242 472.088 11.3438 472.545 11.7188L472.322 12.3809C471.803 12.0918 471.307 11.6074 470.834 10.9277C469.912 9.59961 469.451 8.01172 469.451 6.16406Z" fill="black"/>
<path d="M465.854 9.62695V4.125H464.852V3.28711H465.854V2.63672C465.854 1.95703 466.035 1.43164 466.398 1.06055C466.762 0.689453 467.275 0.503906 467.939 0.503906C468.189 0.503906 468.438 0.537109 468.684 0.603516L468.625 1.48242C468.441 1.44727 468.246 1.42969 468.039 1.42969C467.688 1.42969 467.416 1.5332 467.225 1.74023C467.033 1.94336 466.938 2.23633 466.938 2.61914V3.28711H468.291V4.125H466.938V9.62695H465.854Z" fill="black"/>
<path d="M477.127 3.28711L475.721 5.60156L474.332 3.28711H473.078L475.152 6.42188L473.014 9.62695H474.273L475.738 7.25391L477.203 9.62695H478.457L476.318 6.42188L478.393 3.28711H477.127Z" fill="black"/>
<path d="M482.049 6.22266C482.049 7.09375 481.934 7.92969 481.703 8.73047C481.477 9.52734 481.127 10.2637 480.654 10.9395C480.186 11.6152 479.693 12.0957 479.178 12.3809L478.949 11.7188C479.551 11.2578 480.033 10.543 480.396 9.57422C480.764 8.60156 480.951 7.52344 480.959 6.33984V6.15234C480.959 5.33203 480.873 4.57031 480.701 3.86719C480.529 3.16016 480.289 2.52734 479.98 1.96875C479.676 1.41016 479.332 0.974609 478.949 0.662109L479.178 0C479.693 0.285156 480.184 0.761719 480.648 1.42969C481.117 2.09766 481.467 2.83398 481.697 3.63867C481.932 4.44336 482.049 5.30469 482.049 6.22266Z" fill="black"/>
<path fill-rule="evenodd" clip-rule="evenodd" d="M480.198 24.6085L474.418 14.8278L468.201 24.5968L468.907 25.0455L473.987 17.0621V337.776C472.96 338.086 472.132 338.855 471.743 339.844C459.768 340.034 447.962 339.345 438.434 337.846C405.947 331.822 384.669 321.743 370.227 311.796C358.044 303.405 350.698 295.1 345.491 289.213C344.53 288.126 343.64 287.121 342.808 286.214C311.922 248.488 287.526 222.836 269.21 204.456C268.199 203.442 267.206 202.449 266.23 201.477C266.404 201.061 266.5 200.605 266.5 200.127C266.5 198.194 264.933 196.627 263 196.627C262.512 196.627 262.048 196.727 261.626 196.907C259.134 194.444 256.775 192.126 254.554 189.944C251.535 186.978 248.77 184.261 246.271 181.768C240.108 175.622 235.482 170.758 232.274 166.536L232.249 166.504L232.223 166.473C220.871 153.101 200.588 137 176.572 132.292C173.219 131.634 169.798 131.2 166.323 131.025C165.861 129.632 164.548 128.627 163 128.627C161.456 128.627 160.146 129.627 159.681 131.014C139.959 131.949 118.861 141.674 98.8872 166.504C47.7001 230.134 30.6031 292.18 28.4686 331.125L28.4677 331.141L27.9222 338.31C27.0595 338.948 26.5 339.972 26.5 341.127C26.5 341.137 26.5 341.147 26.5001 341.156L26.5005 341.184H0V342.02H26.615C26.7743 342.625 27.0915 343.166 27.5199 343.597L26.6095 355.561H25.7168V356.445H26.5422L26.0043 363.513L28.9957 363.741L30.4522 344.598C31.8733 344.415 33.0274 343.379 33.385 342.02H163.082V347.127H163.918V342.02H262.082V347.127H262.918V342.02H447.928C455.42 342.698 463.652 342.978 471.948 342.841C472.386 343.62 473.115 344.215 473.987 344.478V377.961H474.823V344.623C474.881 344.625 474.941 344.627 475 344.627C476.383 344.627 477.578 343.825 478.147 342.661C480.948 342.545 483.737 342.38 486.488 342.166C487.085 342.12 487.68 342.071 488.273 342.02H644.676L640.453 345.891L641.018 346.508L646.386 341.587L641.003 337.102L640.468 337.744L644.597 341.184H496.185C501.032 340.571 505.653 339.786 509.882 338.824C516.723 337.268 522.642 335.224 526.833 332.618C544.241 328.093 567.69 307.646 583.278 261.756C598.953 215.607 606.776 143.505 592.529 35.1685L589.554 35.5597C603.766 143.623 595.915 215.224 580.437 260.791C564.94 306.414 541.896 325.719 525.867 329.769L525.633 329.828L525.43 329.957C521.653 332.354 516.041 334.346 509.216 335.899C502.417 337.446 494.522 338.533 486.256 339.175C483.59 339.382 480.889 339.543 478.177 339.657C477.622 338.459 476.408 337.627 475 337.627C474.941 337.627 474.881 337.628 474.823 337.631V17.1557L479.478 25.0337L480.198 24.6085ZM259.5 200.127C259.5 199.791 259.547 199.466 259.636 199.158C257.119 196.67 254.745 194.338 252.506 192.138L252.494 192.126L252.492 192.124C249.473 189.158 246.699 186.433 244.152 183.892C238.008 177.764 233.256 172.78 229.91 168.384C218.832 155.347 199.117 139.769 175.995 135.236C172.716 134.593 169.363 134.171 165.95 134.011C165.328 134.983 164.239 135.627 163 135.627C161.756 135.627 160.664 134.978 160.043 134.001C141.152 134.833 120.76 144.1 101.225 168.384C50.4179 231.542 33.5591 292.998 31.4633 331.305L31.4624 331.321L30.9722 337.764C32.4322 338.185 33.5 339.531 33.5 341.127C33.5 341.146 33.4998 341.165 33.4995 341.184H163.082V333.627H163.918V341.184H262.082V333.627H262.918V341.184H440.518C439.645 341.065 438.788 340.938 437.947 340.806L437.927 340.803L437.907 340.799C405.034 334.706 383.349 324.476 368.525 314.267C356.015 305.651 348.42 297.059 343.215 291.169L343.213 291.168C342.256 290.085 341.38 289.094 340.57 288.211L340.541 288.18L340.514 288.147C309.688 250.493 285.352 224.904 267.085 206.574C266.033 205.519 265.003 204.489 263.994 203.484C263.679 203.577 263.345 203.627 263 203.627C261.067 203.627 259.5 202.06 259.5 200.127Z" fill="black"/>
<path d="M30.457 351.096L30.0234 355.35L30.8906 355.572L31.1777 355.338C31.4473 355.131 31.8184 355.027 32.291 355.027C32.8066 355.027 33.2188 355.201 33.5273 355.549C33.8398 355.893 33.9961 356.35 33.9961 356.92C33.9961 357.525 33.8516 358 33.5625 358.344C33.2773 358.688 32.8828 358.859 32.3789 358.859C31.918 358.859 31.5469 358.736 31.2656 358.49C30.9844 358.24 30.8105 357.871 30.7441 357.383H29.7188C29.7852 358.121 30.0566 358.699 30.5332 359.117C31.0098 359.535 31.625 359.744 32.3789 359.744C33.2305 359.744 33.8926 359.492 34.3652 358.988C34.8418 358.48 35.0801 357.787 35.0801 356.908C35.0801 356.033 34.8516 355.34 34.3945 354.828C33.9375 354.312 33.3203 354.055 32.543 354.055C32.0117 354.055 31.5371 354.178 31.1191 354.424L31.377 352.098H34.8281V351.096H30.457Z" fill="black"/>
<path d="M157.717 357.445H160.576V356.561H157.717V357.445Z" fill="black"/>
<path fill-rule="evenodd" clip-rule="evenodd" d="M166.102 357.762H167.285V358.646H166.102V360.627H165.012V358.646H161.127V358.008L164.947 352.096H166.102V357.762ZM162.357 357.762H165.012V353.578L164.883 353.812L162.357 357.762Z" fill="black"/>
<path d="M261.576 357.445H258.717V356.561H261.576V357.445Z" fill="black"/>
<path d="M264.916 355.834H264.102V356.719H264.916C265.49 356.727 265.93 356.863 266.234 357.129C266.539 357.395 266.691 357.775 266.691 358.271C266.691 358.783 266.553 359.176 266.275 359.449C265.998 359.723 265.598 359.859 265.074 359.859C264.582 359.859 264.189 359.725 263.896 359.455C263.604 359.186 263.457 358.826 263.457 358.377H262.367C262.367 359.088 262.617 359.66 263.117 360.094C263.621 360.527 264.273 360.744 265.074 360.744C265.875 360.744 266.525 360.52 267.025 360.07C267.525 359.621 267.775 359.014 267.775 358.248C267.775 357.752 267.646 357.332 267.389 356.988C267.135 356.645 266.773 356.398 266.305 356.25C266.719 356.078 267.045 355.818 267.283 355.471C267.525 355.123 267.646 354.764 267.646 354.393C267.646 353.635 267.418 353.043 266.961 352.617C266.504 352.191 265.873 351.979 265.068 351.979C264.307 351.979 263.678 352.203 263.182 352.652C262.689 353.098 262.443 353.658 262.443 354.334H263.527C263.527 353.893 263.666 353.539 263.943 353.273C264.225 353.004 264.6 352.869 265.068 352.869C266.064 352.869 266.562 353.369 266.562 354.369C266.562 354.814 266.416 355.168 266.123 355.43C265.83 355.691 265.428 355.826 264.916 355.834Z" fill="black"/>
<path fill-rule="evenodd" clip-rule="evenodd" d="M468.908 359.818C469.342 359.201 469.559 358.258 469.559 356.988V355.582C469.547 354.355 469.324 353.449 468.891 352.863C468.457 352.273 467.781 351.979 466.863 351.979C465.938 351.979 465.258 352.283 464.824 352.893C464.391 353.502 464.174 354.434 464.174 355.688V357.135C464.189 358.334 464.416 359.236 464.854 359.842C465.291 360.443 465.965 360.744 466.875 360.744C467.797 360.744 468.475 360.436 468.908 359.818ZM468.088 353.502C468.346 353.92 468.475 354.588 468.475 355.506V357.281C468.463 358.172 468.326 358.824 468.064 359.238C467.807 359.652 467.41 359.859 466.875 359.859C466.332 359.859 465.926 359.641 465.656 359.203C465.391 358.762 465.258 358.08 465.258 357.158V355.424C465.266 354.557 465.396 353.914 465.65 353.496C465.904 353.078 466.309 352.869 466.863 352.869C467.422 352.869 467.83 353.08 468.088 353.502Z" fill="black"/>
<path d="M652.447 341.602L653.854 339.287H655.119L653.045 342.422L655.184 345.627H653.93L652.465 343.254L651 345.627H649.74L651.879 342.422L649.805 339.287H651.059L652.447 341.602Z" fill="black"/>
<path d="M143.631 115.621C143.396 116.434 143.279 117.281 143.279 118.164C143.279 120.012 143.74 121.6 144.662 122.928C145.135 123.607 145.631 124.092 146.15 124.381L146.373 123.719C145.916 123.344 145.521 122.824 145.189 122.16C144.639 121.051 144.363 119.742 144.363 118.234L144.369 117.736C144.404 116.623 144.604 115.617 144.967 114.719C145.334 113.82 145.803 113.152 146.373 112.715L146.15 112C145.646 112.273 145.16 112.742 144.691 113.406C144.223 114.07 143.869 114.809 143.631 115.621Z" fill="black"/>
<path d="M146.818 118.445H149.678V117.561H146.818V118.445Z" fill="black"/>
<path fill-rule="evenodd" clip-rule="evenodd" d="M155.203 118.762H156.387V119.646H155.203V121.627H154.113V119.646H150.229V119.008L154.049 113.096H155.203V118.762ZM151.459 118.762H154.113V114.578L153.984 114.812L151.459 118.762Z" fill="black"/>
<path d="M156.826 122.904L157.441 123.326C157.734 123.088 157.977 122.771 158.168 122.377C158.363 121.982 158.461 121.588 158.461 121.193V120.344H157.4V121.322C157.385 121.865 157.193 122.393 156.826 122.904Z" fill="black"/>
<path d="M166.26 121.627H165.17V114.402L162.984 115.205V114.221L166.09 113.055H166.26V121.627Z" fill="black"/>
<path d="M169.436 121.627H175.025V120.742H170.742L173.027 118.264C174.098 117.104 174.633 116.104 174.633 115.264C174.633 114.572 174.402 114.02 173.941 113.605C173.48 113.188 172.854 112.979 172.061 112.979C171.213 112.979 170.535 113.221 170.027 113.705C169.523 114.189 169.271 114.824 169.271 115.609H170.355C170.355 115.062 170.504 114.637 170.801 114.332C171.102 114.023 171.521 113.869 172.061 113.869C172.51 113.869 172.869 114.012 173.139 114.297C173.408 114.582 173.543 114.947 173.543 115.393C173.543 115.725 173.459 116.047 173.291 116.359C173.127 116.668 172.826 117.07 172.389 117.566L169.436 120.848V121.627Z" fill="black"/>
<path d="M176.309 121.059C176.309 120.871 176.363 120.715 176.473 120.59C176.586 120.465 176.754 120.402 176.977 120.402C177.199 120.402 177.367 120.465 177.48 120.59C177.598 120.715 177.656 120.871 177.656 121.059C177.656 121.238 177.598 121.389 177.48 121.51C177.367 121.631 177.199 121.691 176.977 121.691C176.754 121.691 176.586 121.631 176.473 121.51C176.363 121.389 176.309 121.238 176.309 121.059Z" fill="black"/>
<path fill-rule="evenodd" clip-rule="evenodd" d="M184.172 116.459C184.398 116.127 184.512 115.748 184.512 115.322C184.512 114.604 184.279 114.033 183.814 113.611C183.354 113.189 182.748 112.979 181.998 112.979C181.244 112.979 180.637 113.189 180.176 113.611C179.715 114.033 179.484 114.604 179.484 115.322C179.484 115.744 179.594 116.121 179.812 116.453C180.031 116.785 180.33 117.045 180.709 117.232C180.264 117.424 179.914 117.705 179.66 118.076C179.41 118.447 179.285 118.863 179.285 119.324C179.285 120.059 179.531 120.646 180.023 121.088C180.52 121.525 181.178 121.744 181.998 121.744C182.811 121.744 183.465 121.525 183.961 121.088C184.461 120.65 184.711 120.062 184.711 119.324C184.711 118.859 184.58 118.443 184.318 118.076C184.061 117.709 183.709 117.43 183.264 117.238C183.646 117.051 183.949 116.791 184.172 116.459ZM183.17 118.135C183.475 118.436 183.627 118.824 183.627 119.301C183.627 119.781 183.482 120.162 183.193 120.443C182.904 120.721 182.506 120.859 181.998 120.859C181.486 120.859 181.086 120.721 180.797 120.443C180.512 120.166 180.369 119.785 180.369 119.301C180.369 118.816 180.516 118.426 180.809 118.129C181.105 117.832 181.498 117.684 181.986 117.684C182.475 117.684 182.869 117.834 183.17 118.135ZM180.961 114.268C181.227 114.002 181.572 113.869 181.998 113.869C182.412 113.869 182.754 114.006 183.023 114.279C183.293 114.553 183.428 114.906 183.428 115.34C183.428 115.773 183.297 116.125 183.035 116.395C182.777 116.66 182.432 116.793 181.998 116.793C181.564 116.793 181.217 116.66 180.955 116.395C180.697 116.125 180.568 115.773 180.568 115.34C180.568 114.887 180.699 114.529 180.961 114.268Z" fill="black"/>
<path d="M188.689 118.223C188.689 119.094 188.574 119.93 188.344 120.73C188.117 121.527 187.768 122.264 187.295 122.939C186.826 123.615 186.334 124.096 185.818 124.381L185.59 123.719C186.191 123.258 186.674 122.543 187.037 121.574C187.404 120.602 187.592 119.523 187.6 118.34V118.152C187.6 117.332 187.514 116.57 187.342 115.867C187.17 115.16 186.93 114.527 186.621 113.969C186.316 113.41 185.973 112.975 185.59 112.662L185.818 112C186.334 112.285 186.824 112.762 187.289 113.43C187.758 114.098 188.107 114.834 188.338 115.639C188.572 116.443 188.689 117.305 188.689 118.223Z" fill="black"/>
<path d="M254.631 181.621C254.396 182.434 254.279 183.281 254.279 184.164C254.279 186.012 254.74 187.6 255.662 188.928C256.135 189.607 256.631 190.092 257.15 190.381L257.373 189.719C256.916 189.344 256.521 188.824 256.189 188.16C255.639 187.051 255.363 185.742 255.363 184.234L255.369 183.736C255.404 182.623 255.604 181.617 255.967 180.719C256.334 179.82 256.803 179.152 257.373 178.715L257.15 178C256.646 178.273 256.16 178.742 255.691 179.406C255.223 180.07 254.869 180.809 254.631 181.621Z" fill="black"/>
<path d="M260.678 184.445H257.818V183.561H260.678V184.445Z" fill="black"/>
<path d="M264.018 182.834H263.203V183.719H264.018C264.592 183.727 265.031 183.863 265.336 184.129C265.641 184.395 265.793 184.775 265.793 185.271C265.793 185.783 265.654 186.176 265.377 186.449C265.1 186.723 264.699 186.859 264.176 186.859C263.684 186.859 263.291 186.725 262.998 186.455C262.705 186.186 262.559 185.826 262.559 185.377H261.469C261.469 186.088 261.719 186.66 262.219 187.094C262.723 187.527 263.375 187.744 264.176 187.744C264.977 187.744 265.627 187.52 266.127 187.07C266.627 186.621 266.877 186.014 266.877 185.248C266.877 184.752 266.748 184.332 266.49 183.988C266.236 183.645 265.875 183.398 265.406 183.25C265.82 183.078 266.146 182.818 266.385 182.471C266.627 182.123 266.748 181.764 266.748 181.393C266.748 180.635 266.52 180.043 266.062 179.617C265.605 179.191 264.975 178.979 264.17 178.979C263.408 178.979 262.779 179.203 262.283 179.652C261.791 180.098 261.545 180.658 261.545 181.334H262.629C262.629 180.893 262.768 180.539 263.045 180.273C263.326 180.004 263.701 179.869 264.17 179.869C265.166 179.869 265.664 180.369 265.664 181.369C265.664 181.814 265.518 182.168 265.225 182.43C264.932 182.691 264.529 182.826 264.018 182.834Z" fill="black"/>
<path d="M268.441 189.326L267.826 188.904C268.193 188.393 268.385 187.865 268.4 187.322V186.344H269.461V187.193C269.461 187.588 269.363 187.982 269.168 188.377C268.977 188.771 268.734 189.088 268.441 189.326Z" fill="black"/>
<path fill-rule="evenodd" clip-rule="evenodd" d="M278.531 182.459C278.758 182.127 278.871 181.748 278.871 181.322C278.871 180.604 278.639 180.033 278.174 179.611C277.713 179.189 277.107 178.979 276.357 178.979C275.604 178.979 274.996 179.189 274.535 179.611C274.074 180.033 273.844 180.604 273.844 181.322C273.844 181.744 273.953 182.121 274.172 182.453C274.391 182.785 274.689 183.045 275.068 183.232C274.623 183.424 274.273 183.705 274.02 184.076C273.77 184.447 273.645 184.863 273.645 185.324C273.645 186.059 273.891 186.646 274.383 187.088C274.879 187.525 275.537 187.744 276.357 187.744C277.17 187.744 277.824 187.525 278.32 187.088C278.82 186.65 279.07 186.062 279.07 185.324C279.07 184.859 278.939 184.443 278.678 184.076C278.42 183.709 278.068 183.43 277.623 183.238C278.006 183.051 278.309 182.791 278.531 182.459ZM277.529 184.135C277.834 184.436 277.986 184.824 277.986 185.301C277.986 185.781 277.842 186.162 277.553 186.443C277.264 186.721 276.865 186.859 276.357 186.859C275.846 186.859 275.445 186.721 275.156 186.443C274.871 186.166 274.729 185.785 274.729 185.301C274.729 184.816 274.875 184.426 275.168 184.129C275.465 183.832 275.857 183.684 276.346 183.684C276.834 183.684 277.229 183.834 277.529 184.135ZM275.32 180.268C275.586 180.002 275.932 179.869 276.357 179.869C276.771 179.869 277.113 180.006 277.383 180.279C277.652 180.553 277.787 180.906 277.787 181.34C277.787 181.773 277.656 182.125 277.395 182.395C277.137 182.66 276.791 182.793 276.357 182.793C275.924 182.793 275.576 182.66 275.314 182.395C275.057 182.125 274.928 181.773 274.928 181.34C274.928 180.887 275.059 180.529 275.32 180.268Z" fill="black"/>
<path d="M280.57 187.059C280.57 186.871 280.625 186.715 280.734 186.59C280.848 186.465 281.016 186.402 281.238 186.402C281.461 186.402 281.629 186.465 281.742 186.59C281.859 186.715 281.918 186.871 281.918 187.059C281.918 187.238 281.859 187.389 281.742 187.51C281.629 187.631 281.461 187.691 281.238 187.691C281.016 187.691 280.848 187.631 280.734 187.51C280.625 187.389 280.57 187.238 280.57 187.059Z" fill="black"/>
<path d="M286.072 187.627H287.162V179.055H286.992L283.887 180.221V181.205L286.072 180.402V187.627Z" fill="black"/>
<path d="M292.951 184.223C292.951 185.094 292.836 185.93 292.605 186.73C292.379 187.527 292.029 188.264 291.557 188.939C291.088 189.615 290.596 190.096 290.08 190.381L289.852 189.719C290.453 189.258 290.936 188.543 291.299 187.574C291.666 186.602 291.854 185.523 291.861 184.34V184.152C291.861 183.332 291.775 182.57 291.604 181.867C291.432 181.16 291.191 180.527 290.883 179.969C290.578 179.41 290.234 178.975 289.852 178.662L290.08 178C290.596 178.285 291.086 178.762 291.551 179.43C292.02 180.098 292.369 180.834 292.6 181.639C292.834 182.443 292.951 183.305 292.951 184.223Z" fill="black"/>
</svg>
